<svg viewBox="0 0 760 210" xmlns="http://www.w3.org/2000/svg" role="img" aria-label="Mismatch transitions"><rect x="0" y="0" width="760" height="210" rx="24" fill="#fffdf8" stroke="#d9d4c7" stroke-width="1.2"/><text x="24" y="30" fill="#172033" font-size="18" font-family="IBM Plex Sans, Avenir Next, Segoe UI, sans-serif" font-weight="700">Hata Geçiş Sayıları</text><text x="210" y="68" text-anchor="end" fill="#172033" font-size="12" font-family="IBM Plex Sans, Avenir Next, Segoe UI, sans-serif">negative → neutral</text><rect x="220" y="54" width="500" height="18" rx="9" fill="#ece7da"/><rect x="220" y="54" width="500.0" height="18" rx="9" fill="#c2410c"/><text x="728.0" y="68" fill="#5f6b85" font-size="12" font-family="IBM Plex Sans, Avenir Next, Segoe UI, sans-serif">128</text><text x="210" y="102" text-anchor="end" fill="#172033" font-size="12" font-family="IBM Plex Sans, Avenir Next, Segoe UI, sans-serif">negative → positive</text><rect x="220" y="88" width="500" height="18" rx="9" fill="#ece7da"/><rect x="220" y="88" width="390.625" height="18" rx="9" fill="#c2410c"/><text x="618.625" y="102" fill="#5f6b85" font-size="12" font-family="IBM Plex Sans, Avenir Next, Segoe UI, sans-serif">100</text><text x="210" y="136" text-anchor="end" fill="#172033" font-size="12" font-family="IBM Plex Sans, Avenir Next, Segoe UI, sans-serif">positive → neutral</text><rect x="220" y="122" width="500" height="18" rx="9" fill="#ece7da"/><rect x="220" y="122" width="308.59375" height="18" rx="9" fill="#15803d"/><text x="536.59375" y="136" fill="#5f6b85" font-size="12" font-family="IBM Plex Sans, Avenir Next, Segoe UI, sans-serif">79</text><text x="210" y="170" text-anchor="end" fill="#172033" font-size="12" font-family="IBM Plex Sans, Avenir Next, Segoe UI, sans-serif">neutral → positive</text><rect x="220" y="156" width="500" height="18" rx="9" fill="#ece7da"/><rect x="220" y="156" width="144.53125" height="18" rx="9" fill="#0f766e"/><text x="372.53125" y="170" fill="#5f6b85" font-size="12" font-family="IBM Plex Sans, Avenir Next, Segoe UI, sans-serif">37</text></svg>